Coordinates
version=1
nRows=26
nColumns=22
inDegrees=yes

Units are S.I. units (second, meters, Newtons, ...)
If the header above contains a line with 'inDegrees', this indicates whether rotational values are in degrees (yes) or radians (no).

endheader
time	pelvis_tilt	pelvis_list	pelvis_rotation	pelvis_tx	pelvis_ty	pelvis_tz	hip_flexion_r	hip_adduction_r	hip_rotation_r	knee_angle_r	ankle_angle_r	subtalar_angle_r	hip_flexion_l	hip_adduction_l	hip_rotation_l	knee_angle_l	ankle_angle_l	subtalar_angle_l	lumbar_extension	lumbar_bending	lumbar_rotation
      0.01000000	      0.33463268	     -3.60405347	    -30.25637586	     -0.96031201	      0.90195438	     -0.38609624	     -6.88709362	      7.37027099	    -10.33577210	     -1.08098281	     15.95402164	     -5.62042417	     13.85713932	    -11.97369813	     -5.57827033	    -39.74777283	     14.25296835	     -2.36382031	    -10.35014020	     -0.56417332	      4.94362109
      0.02000000	      0.46024667	     -3.52748588	    -30.17148972	     -0.96065565	      0.90214207	     -0.38606923	     -6.95922128	      7.26210517	    -10.34921951	     -1.04760502	     15.97417388	     -5.64863163	     14.11990998	    -11.69483599	     -5.10508379	    -40.21139527	     14.08975066	     -2.16757709	    -10.47230628	     -0.70493040	      4.94072273
      0.03000000	      0.54947523	     -3.46238281	    -30.06737678	     -0.96103278	      0.90228217	     -0.38610863	     -6.94950755	      7.18016546	    -10.44959153	     -1.10851689	     16.01460282	     -5.72095462	     14.45546599	    -11.39684401	     -4.52352872	    -40.72773227	     13.89330881	     -1.41360594	    -10.57209425	     -0.79927048	      4.94604326
      0.04000000	      0.68437645	     -3.38024849	    -29.97539894	     -0.96139115	      0.90249891	     -0.38616106	     -6.99069432	      7.05501700	    -10.51667146	     -1.13739525	     16.04666590	     -5.76197525	     14.72271634	    -11.00795902	     -3.91026453	    -41.19123073	     13.67681856	     -0.71434335	    -10.70808744	     -0.93697371	      4.95819537
      0.05000000	      0.81485241	     -3.28808410	    -29.89376359	     -0.96169194	      0.90271657	     -0.38624147	     -7.01912849	      6.91658198	    -10.57781665	     -1.17598774	     16.08118903	     -5.78994203	     14.95332784	    -10.56990537	     -3.28566068	    -41.58622309	     13.44157518	      0.11420597	    -10.82280116	     -1.07628087	      4.97862830
      0.06000000	      0.95035473	     -3.20263197	    -29.81958542	     -0.96192737	      0.90295187	     -0.38636690	     -7.03595293	      6.77103530	    -10.65050090	     -1.25908816	     16.12835224	     -5.81051490	     15.11534639	    -10.10228902	     -2.67101771	    -41.88805928	     13.19416556	      0.96380405	    -10.94096393	     -1.19992483	      4.97949504
      0.07000000	      1.06602159	     -3.11378216	    -29.77423568	     -0.96207164	      0.90316244	     -0.38645205	     -7.04898812	      6.62850234	    -10.69805090	     -1.32124713	     16.16954433	     -5.82006027	     15.21166841	     -9.63160534	     -2.11536470	    -42.07001390	     12.94987745	      1.89316223	    -11.01937170	     -1.31922039	      5.01884091
      0.08000000	      1.17365097	     -3.02942313	    -29.74133960	     -0.96210006	      0.90336462	     -0.38652074	     -7.05701463	      6.48702676	    -10.73039412	     -1.40086423	     16.21419508	     -5.82935596	     15.22874390	     -9.16776970	     -1.62448269	    -42.12859996	     12.71599376	      2.74378707	    -11.07467863	     -1.42455197	      5.04144414
      0.09000000	      1.27082110	     -2.95401746	    -29.72183383	     -0.96198525	      0.90355797	     -0.38653231	     -7.06427834	      6.35495281	    -10.77140332	     -1.49363556	     16.28426346	     -5.84382774	     15.15857681	     -8.73250304	     -1.22182464	    -42.05786965	     12.48593796	      3.42291343	    -11.10047863	     -1.51574831	      5.06107687
      0.10000000	      1.32538085	     -2.87546441	    -29.74124268	     -0.96177396	      0.90367958	     -0.38644868	     -7.06109938	      6.24037985	    -10.72471750	     -1.54346722	     16.30244805	     -5.85083650	     15.04118623	     -8.35096868	     -0.93694988	    -41.87490070	     12.35030092	      4.06633749	    -11.06281182	     -1.59210081	      5.09243271
      0.11000000	      1.36343105	     -2.80570000	    -29.77125112	     -0.96143376	      0.90376898	     -0.38629560	     -7.05294621	      6.14015097	    -10.69121138	     -1.60312022	     16.37805652	     -5.85996755	     14.85819837	     -8.02700032	     -0.76894135	    -41.59038758	     12.23562826	      4.38936327	    -10.99233803	     -1.65395467	      5.12963773
      0.12000000	      1.36478309	     -2.75514953	    -29.82736057	     -0.96100805	      0.90379992	     -0.38603815	     -7.04135695	      6.07811726	    -10.61182870	     -1.64062452	     16.40759305	     -5.86623130	     14.62908253	     -7.79625417	     -0.73524447	    -41.22279263	     12.23903643	      4.60149438	    -10.87842854	     -1.68493076	      5.16834354
      0.13000000	      1.33325145	     -2.72425440	    -29.88935942	     -0.96051593	      0.90376795	     -0.38572044	     -7.01802939	      6.05346762	    -10.53687219	     -1.67373986	     16.43539105	     -5.87117462	     14.37121108	     -7.65532578	     -0.81642606	    -40.79797357	     12.32647667	      4.63145728	    -10.73419438	     -1.68471337	      5.19911755
      0.14000000	      1.28410332	     -2.71071584	    -29.96294159	     -0.95997366	      0.90369641	     -0.38536245	     -6.99216698	      6.05318414	    -10.46014143	     -1.70699774	     16.47266607	     -5.87343720	     14.07389307	     -7.58435562	     -0.99175963	    -40.32295049	     12.50376766	      4.53844445	    -10.57482169	     -1.66350949	      5.24439169
      0.15000000	      1.25078182	     -2.72620713	    -30.05449625	     -0.95940631	      0.90364408	     -0.38496694	     -7.00742702	      6.06904487	    -10.34507391	     -1.72742517	     16.50834863	     -5.87622801	     13.70359914	     -7.58535706	     -1.29781323	    -39.80495508	     12.73739840	      4.19616196	    -10.45179456	     -1.62737708	      5.25971793
      0.16000000	      1.18520374	     -2.74582387	    -30.12719892	     -0.95881122	      0.90352301	     -0.38461413	     -6.99000125	      6.10679201	    -10.26491185	     -1.75754996	     16.54841411	     -5.87503802	     13.34385067	     -7.62315344	     -1.61579862	    -39.26266732	     13.06207037	      3.77290834	    -10.30276281	     -1.57092108	      5.26642744
      0.17000000	      1.11147492	     -2.76838962	    -30.19301860	     -0.95817927	      0.90337728	     -0.38431033	     -6.96361371	      6.14768526	    -10.19837460	     -1.79391634	     16.59102265	     -5.86835470	     12.96807833	     -7.67837652	     -1.95034293	    -38.69166815	     13.44076154	      3.30649212	    -10.15281909	     -1.50518374	      5.25664142
      0.18000000	      1.03624254	     -2.78125742	    -30.24428828	     -0.95749463	      0.90322286	     -0.38406199	     -6.93506645	      6.17807909	    -10.16929565	     -1.82265561	     16.60114893	     -5.86170351	     12.57976386	     -7.72496429	     -2.27496209	    -38.08777666	     13.84096733	      2.75622946	     -9.99789518	     -1.44693052	      5.23816351
      0.19000000	      0.95207135	     -2.79554491	    -30.28202568	     -0.95678748	      0.90303927	     -0.38388078	     -6.88939314	      6.21083447	    -10.13633525	     -1.86997854	     16.65147143	     -5.84713587	     12.19675783	     -7.77682599	     -2.58364964	    -37.47193679	     14.27614745	      2.29439783	     -9.84307168	     -1.37943463	      5.18740541
      0.20000000	      0.86696943	     -2.80374296	    -30.30236662	     -0.95605016	      0.90284462	     -0.38378528	     -6.83489668	      6.23555162	    -10.11975667	     -1.92354789	     16.70817542	     -5.83139620	     11.81956193	     -7.81510399	     -2.86178711	    -36.84410674	     14.72531519	      1.87633254	     -9.69371151	     -1.31210187	      5.11812396
      0.21000000	      0.75325654	     -2.80120320	    -30.29158878	     -0.95528283	      0.90259085	     -0.38377914	     -6.73987243	      6.26651090	    -10.15157286	     -1.98768329	     16.78599580	     -5.82874591	     11.49160524	     -7.84778110	     -3.07916451	    -36.22085358	     15.17545658	      1.72793070	     -9.51703851	     -1.23584785	      5.03826358
      0.22000000	      0.69668102	     -2.79802184	    -30.28258128	     -0.95448583	      0.90243886	     -0.38380374	     -6.71069930	      6.26409521	    -10.15672835	     -2.03052860	     16.83915350	     -5.81079159	     11.10064515	     -7.85397882	     -3.33013165	    -35.57490600	     15.59420276	      1.23387665	     -9.40616726	     -1.19576065	      4.94084150
      0.23000000	      0.57861092	     -2.76667469	    -30.22569305	     -0.95369164	      0.90218789	     -0.38396085	     -6.58741511	      6.26978351	    -10.20548192	     -2.10235259	     16.86713563	     -5.82037071	     10.82081267	     -7.85009670	     -3.48853461	    -34.95613067	     15.99341586	      1.17825440	     -9.23381639	     -1.14263211	      4.78781326
      0.24000000	      0.53679184	     -2.75957944	    -30.18846813	     -0.95285686	      0.90207391	     -0.38412265	     -6.55396588	      6.25075938	    -10.23927980	     -2.17074258	     17.01079451	     -5.81581089	     10.42961482	     -7.82781131	     -3.66884817	    -34.29880273	     16.41153034	      0.87783936	     -9.16092010	     -1.11140930	      4.69887459
      0.25000000	      0.45251599	     -2.71060976	    -30.12261442	     -0.95201251	      0.90191465	     -0.38435455	     -6.46203927	      6.21904911	    -10.29530993	     -2.22358727	     17.04016475	     -5.82883168	     10.12008138	     -7.78161163	     -3.80925637	    -33.64977677	     16.77430446	      0.76967831	     -9.03259479	     -1.10098583	      4.57717215
      0.26000000	      0.41552914	     -2.66160608	    -30.06283916	     -0.95114557	      0.90184678	     -0.38460690	     -6.40796485	      6.15679331	    -10.34398876	     -2.29153204	     17.10947247	     -5.84300159	      9.75791783	     -7.71378072	     -3.98300352	    -32.98603929	     17.10272318	      0.63699663	     -8.96188821	     -1.11761099	      4.45146622
